PathFileType	3	(X/Y/Z)	D:\Vicon Database\Healthy Subjects\S0040\Jan. 30, 2020\Force Plate Walk 1.trc
DataRate	CameraRate	NumFrames	NumMarkers	Units	OrigDataRate	OrigDataStartFrame	OrigNumFrames
100.0	100.0	6	53	mm	100.0	343	322	
Frame#	Time	right_foot_cluster2			right_foot_cluster3			sternum_cluster1			sternum_cluster2			sternum_cluster3			left_asis			right_asis			left_psis			right_psis			sacrum_cluster1			sacrum_cluster2			sacrum_cluster3			left_lat_femoral_epicondyle			left_anterior_thigh15			left_anterior_thigh25			left_anterior_thigh50			left_lateral_thigh25			left_lateral_thigh50			left_thigh_cluster1			left_thigh_cluster2			left_thigh_cluster3			left_fibular_head			left_tibial_tuberosity			left_anterior_shank30			left_lateral_malleolus			left_shank_cluster1			left_shank_cluster2			left_shank_cluster3			left_heel			left_metatarsal2			left_foot_cluster1			left_foot_cluster2			left_foot_cluster3			right_lat_femoral_epicondyle			right_anterior_thigh15			right_anterior_thigh25			right_anterior_thigh50			right_lateral_thigh25			right_lateral_thigh50			right_thigh_cluster1			right_thigh_cluster2			right_thigh_cluster3			right_fibular_head			right_tibial_tuberosity			right_lateral_distal_shank			right_anterior_shank30			right_lateral_malleolus			right_shank_cluster1			right_shank_cluster2			right_shank_cluster3			right_heel			right_metatarsal2			right_foot_cluster1			
		X1	Y1	Z1	X2	Y2	Z2	X3	Y3	Z3	X4	Y4	Z4	X5	Y5	Z5	X6	Y6	Z6	X7	Y7	Z7	X8	Y8	Z8	X9	Y9	Z9	X10	Y10	Z10	X11	Y11	Z11	X12	Y12	Z12	X13	Y13	Z13	X14	Y14	Z14	X15	Y15	Z15	X16	Y16	Z16	X17	Y17	Z17	X18	Y18	Z18	X19	Y19	Z19	X20	Y20	Z20	X21	Y21	Z21	X22	Y22	Z22	X23	Y23	Z23	X24	Y24	Z24	X25	Y25	Z25	X26	Y26	Z26	X27	Y27	Z27	X28	Y28	Z28	X29	Y29	Z29	X30	Y30	Z30	X31	Y31	Z31	X32	Y32	Z32	X33	Y33	Z33	X34	Y34	Z34	X35	Y35	Z35	X36	Y36	Z36	X37	Y37	Z37	X38	Y38	Z38	X39	Y39	Z39	X40	Y40	Z40	X41	Y41	Z41	X42	Y42	Z42	X43	Y43	Z43	X44	Y44	Z44	X45	Y45	Z45	X46	Y46	Z46	X47	Y47	Z47	X48	Y48	Z48	X49	Y49	Z49	X50	Y50	Z50	X51	Y51	Z51	X52	Y52	Z52	X53	Y53	Z53	
343	3.42	3609.5471	103.60008	-145.83734	3608.897	107.45782	-183.33759	3240.3459	1413.7717	-88.597198	3232.7234	1383.7454	-78.894547	3229.9924	1386.6295	-116.93469	3297.0959	1045.0502	25.770468	3285.1028	1043.3762	-223.13136	3460.0759	1064.4501	-23.388699	3454.7412	1069.5552	-141.25792	3464.679	1125.1749	-88.897041	3468.865	1099.3341	-101.94296	3474.7039	1093.7117	-62.649033	3177.884	551.63214	49.050655	3125.6626	659.88019	-2.8541799	3145.1748	743.47351	13.709129	3204.2961	865.64001	30.024023	3240.5859	691.03766	73.820862	3297.001	829.45288	101.7288	3281.0535	784.77429	107.09336	3272.179	756.28583	103.60943	3240.4255	778.80493	109.00011	3144.2112	479.66144	55.303379	3089.0837	490.54272	0.21299636	3027.6309	245.75917	-7.637845	3030.4702	118.80547	21.037449	3071.2883	438.4234	-27.192549	3058.0422	413.78214	-18.43856	3072.0195	409.12103	-54.192799	3080.3767	55.006252	-20.928064	2886.1067	153.22629	-9.7675915	2960.4395	170.20763	-4.450182	2932.0518	165.21935	6.2424431	2929.9133	173.26074	-31.32395	3513.9155	537.44977	-224.96645	3401.1013	586.55762	-167.74274	3347.6882	656.12738	-168.27831	3295.5598	779.52228	-185.64853	3445.5476	681.70239	-252.59888	3392.1672	816.33167	-283.92346	3418.2754	770.57123	-287.16693	3416.0291	741.84851	-281.83441	3453.2556	753.80139	-278.96967	3553.1079	479.41769	-226.23506	3506.5527	449.19287	-181.60826	3672.563	235.55632	-209.0769	3625.2817	229.3537	-164.06053	3716.5562	138.55948	-194.02072	3541.7615	393.24533	-125.58463	3557.4758	370.29691	-118.68328	3540.1538	357.78406	-146.71933	3799.6526	125.33932	-160.69687	3588.5569	63.178806	-156.65636	3628.6492	124.0765	-154.49951
344	3.43	3605.8733	102.99569	-146.07402	3604.9529	107.39263	-183.38446	3227.0847	1413.1042	-87.348221	3219.2913	1383.2822	-77.572769	3216.4834	1386.0795	-115.33247	3281.3638	1043.8489	27.067493	3270.1191	1042.1423	-222.19441	3444.5281	1062.9397	-21.686316	3439.5493	1067.9253	-139.55986	3449.2712	1123.4265	-87.196922	3453.5881	1097.6735	-100.21375	3459.2744	1092.0629	-60.941978	3163.1799	549.68231	49.255585	3110.293	659.16296	-0.46038392	3129.9766	742.06	15.811777	3188.9563	864.17529	31.475637	3225.2415	689.31982	74.702744	3281.9805	827.43353	102.30268	3266.4482	782.79779	107.68666	3256.8203	754.27185	103.93195	3227.0176	776.22546	110.02953	3130.1558	476.84268	55.146523	3075.1675	487.3587	-0.22705533	3018.885	241.41205	-8.7573757	3024.9587	115.03761	20.015118	3058.8271	434.88733	-27.927967	3045.8792	409.95508	-19.398685	3059.9978	405.7048	-54.923367	3077.0896	55.598301	-21.873035	2879.1228	144.39426	-10.899778	2952.6589	164.04102	-6.0206413	2924.4644	158.16362	4.5316076	2922.0017	165.96454	-32.769306	3498.8459	536.29163	-224.5661	3385.4993	584.90369	-167.97285	3332.1543	654.65094	-168.50868	3280.9124	778.31482	-185.77461	3430.7842	680.63507	-251.90651	3377.8706	815.18243	-282.64481	3404.2695	770.07367	-286.1283	3401.668	741.21698	-281.0134	3438.791	752.79584	-277.58771	3538.9585	478.93411	-225.83112	3492.9768	447.27194	-181.16093	3665.6602	238.5041	-210.02252	3618.1292	230.89514	-163.92723	3711.8816	142.56664	-194.37163	3529.7375	391.92206	-125.31835	3546.2473	369.69254	-118.34027	3528.8208	356.93591	-146.23999	3795.2434	132.12172	-160.57051	3586.7815	62.562881	-156.77301	3624.0276	124.80721	-154.82811
345	3.44	3601.8413	102.90903	-146.52756	3600.835	106.9571	-183.57655	3213.8228	1412.7751	-85.934097	3205.6926	1383.1014	-76.289627	3203.0642	1385.9364	-113.98681	3265.2236	1042.969	28.314911	3254.9636	1040.9989	-221.27805	3428.7085	1061.865	-19.751886	3424.1689	1066.7432	-137.68626	3433.6006	1122.344	-85.297836	3437.9924	1096.5587	-98.244392	3443.5291	1091.0099	-58.985275	3148.613	547.93109	49.299603	3094.6904	658.19305	1.6756533	3114.7229	740.16266	17.854515	3173.1416	862.17609	32.731155	3210.4519	687.34991	75.444344	3266.6804	825.51025	103.11672	3251.5845	780.69434	108.41509	3241.9448	752.29211	104.53584	3212.0671	774.87909	111.09903	3116.2383	475.33652	55.029621	3061.3982	484.27576	-0.74891275	3010.322	237.31674	-10.174406	3018.7915	111.72192	19.303392	3046.8528	431.2236	-29.163179	3034.2253	406.18704	-20.97279	3049.2798	402.5275	-56.111553	3074.5405	56.769444	-21.766428	2871.9946	134.67447	-12.405833	2943.8694	157.644	-7.0507698	2915.894	150.17668	3.2070103	2913.3796	158.0226	-34.245304	3482.6101	534.70319	-224.05797	3368.9832	583.3866	-168.29662	3315.6111	653.19696	-168.61174	3265.4348	777.23035	-185.62733	3415.2119	679.61298	-251.18056	3363.0981	814.70416	-281.73529	3389.2231	769.22485	-285.41925	3386.6953	740.43134	-280.03839	3423.7417	751.92957	-276.18298	3523.7258	478.14954	-225.33405	3478.2979	445.16879	-180.80411	3657.0059	241.63657	-209.36475	3610.0967	232.46947	-164.05469	3706.5732	147.02312	-194.37262	3516.6399	390.54459	-125.16101	3534.0498	368.96884	-118.26124	3512.9878	357.73172	-146.95308	3789.8796	139.66917	-160.34378	3584.7927	61.951775	-156.86427	3618.9482	125.50787	-154.91183
346	3.45	3597.0601	103.257	-146.67003	3596.1594	106.7842	-183.6601	3200.3362	1413.2098	-84.738564	3192.0215	1383.4926	-74.883751	3189.5327	1386.1	-112.78695	3248.8157	1042.1223	29.524218	3239.395	1040.6881	-220.22208	3412.7024	1061.241	-17.652769	3408.6133	1065.9469	-135.70946	3417.7769	1121.8063	-83.278099	3422.2031	1095.9358	-96.161285	3427.6174	1090.4264	-56.925793	3134.2671	546.1781	49.825272	3079.6047	656.11163	3.1204023	3099.5962	737.78357	19.537935	3156.9902	860.05457	34.082916	3196.4126	685.12024	76.051239	3251.2729	823.82861	104.06915	3236.0818	779.15997	109.83328	3227.2986	750.31665	105.79897	3197.1528	772.61249	111.91373	3102.5901	473.76242	54.864212	3048.0498	481.65869	-1.2330399	3001.4197	233.85825	-10.966917	3012.1277	109.11015	18.951283	3035.1897	428.49017	-30.196373	3022.9006	403.00555	-22.379786	3039.0574	399.25906	-57.275322	3070.7356	57.639038	-21.684765	2865.4429	126.50237	-14.247709	2935.8862	151.93787	-7.937108	2908.2498	143.22202	1.853687	2905.8228	151.66273	-35.589439	3465.2942	532.87097	-223.26816	3351.158	581.57196	-168.56506	3298.3726	652.09784	-169.14987	3249.147	776.60742	-185.46638	3398.9255	678.48083	-250.35867	3347.7688	814.06232	-279.96964	3373.6399	768.46259	-283.42343	3371.0186	739.89288	-278.92194	3408.167	751.20874	-274.81201	3507.5334	477.81039	-225.49442	3462.6423	443.17654	-180.60147	3648.5454	245.57982	-209.64859	3601.0881	234.24644	-164.27597	3700.2422	152.2775	-194.63989	3502.3044	389.87415	-125.94334	3520.6865	368.13547	-118.17226	3499.054	356.64209	-147.19632	3783.5144	148.28391	-160.01122	3582.5898	61.454819	-156.87517	3613.2371	126.5399	-154.54723
347	3.46	3591.3831	103.71938	-146.78839	3591.0085	106.90814	-183.91457	3186.2039	1414.094	-83.321648	3178.1379	1384.3354	-73.365372	3175.8594	1386.7942	-111.47486	3231.8022	1042.2052	30.546093	3222.9873	1040.5665	-218.92216	3396.4695	1060.886	-15.496583	3392.7969	1065.4056	-133.67906	3401.7183	1121.4225	-81.227783	3406.293	1095.5803	-94.069099	3411.6252	1090.1416	-54.858875	3120.6855	544.72919	50.385765	3065.5073	653.31439	3.1889088	3084.5935	735.17786	20.265087	3140.8923	858.05872	35.561169	3183.0259	683.1615	76.016174	3235.6582	822.53912	105.31804	3220.7842	777.47443	111.21412	3212.8032	748.75354	107.14474	3182.2693	770.07458	112.60954	3089.4072	472.34323	55.156452	3035.0469	479.52383	-1.2120736	2992.668	231.12866	-11.506668	3006.1516	106.58549	18.774529	3023.4224	426.21213	-30.650917	3011.145	400.93997	-22.866215	3028.0864	397.17566	-57.388241	3067.0215	58.513367	-21.656338	2859.5244	118.04024	-16.293247	2928.8386	146.01143	-9.4379654	2901.3621	136.19319	0.12260132	2898.9316	144.58267	-37.121529	3447.0222	531.96368	-223.07501	3332.1787	579.71039	-169.27319	3280.073	651.24396	-169.75363	3232.4749	776.23199	-185.04488	3381.7166	677.40399	-249.57056	3331.7979	813.13617	-278.20798	3357.7361	768.38885	-282.47064	3354.5908	739.28839	-277.76834	3391.7502	750.34363	-273.3959	3489.9485	476.87341	-224.92743	3445.7903	440.92288	-180.70607	3638.095	249.14227	-209.5325	3590.9536	236.7034	-164.39279	3692.7056	157.40253	-194.72914	3487.2588	388.3927	-125.61323	3506.158	367.50467	-118.04259	3485.2268	355.9791	-147.66896	3775.7693	157.7372	-159.60622	3579.9612	60.558529	-156.9895	3606.3696	126.98753	-154.45006
348	3.47	3586.2554	101.77718	-146.77698	3584.8647	105.7865	-183.96396	3172.5598	1415.0531	-81.795128	3164.1743	1385.347	-72.209152	3162.1394	1387.8624	-110.05244	3215.4851	1041.9283	31.906406	3208.0234	1040.3605	-217.66211	3380.1289	1060.7042	-13.499846	3376.8186	1065.001	-131.78772	3385.762	1121.2063	-79.346375	3390.5583	1095.3799	-92.017021	3395.6401	1089.942	-52.909416	3108.0183	543.55719	50.702991	3051.7239	651.65125	1.6690866	3069.8743	733.58679	20.366909	3124.9873	856.74854	37.137646	3169.7686	681.77985	75.984383	3220.1858	821.46857	106.4376	3206.2534	776.13257	111.55554	3198.6389	747.35516	106.9949	3167.7725	767.91736	112.73931	3076.7671	471.28741	55.760628	3022.3801	477.85153	-1.0977281	2984.2649	228.59479	-12.289476	3000.6042	104.50159	18.349514	3011.6765	424.4837	-30.530579	2999.814	398.81555	-22.966106	3017.0916	395.49042	-57.32571	3063.6206	59.845295	-21.636259	2853.8713	109.25355	-17.895229	2921.5913	140.39368	-10.594254	2894.4841	129.29698	-1.2288364	2891.9802	137.59645	-38.583218	3427.3296	530.23181	-222.73451	3311.7368	577.94452	-169.87244	3261.0059	650.2182	-170.16516	3215.2981	776.23718	-184.40752	3363.8047	676.36243	-248.98172	3315.2117	812.42792	-276.67224	3340.5833	767.63562	-281.01682	3337.1021	738.52191	-276.12909	3374.5288	749.2356	-271.92114	3471.198	476.07239	-224.94133	3427.6316	438.71432	-181.01773	3626.8062	253.69231	-209.21794	3579.6868	238.88727	-164.37201	3683.9724	163.08611	-194.84813	3471.0222	387.0314	-125.53482	3490.4377	367.19412	-118.69993	3470.4348	354.9039	-148.15033	3766.6785	168.25772	-159.1209	3577.0095	59.837414	-157.0386	3598.6956	127.56654	-154.21004
